<?xml version="1.0" encoding="utf-8"?>
<svg version="1.1" id="Logo" xmlns="http://www.w3.org/2000/svg" xmlns:xlink="http://www.w3.org/1999/xlink" x="0px" y="0px"
	 viewBox="0 0 110 120.137" enable-background="new 0 0 110 120.137" xml:space="preserve">
<style type="text/css">
	.st0{fill:#FFFFFF;}
</style>
<g>
	<g>
		<polygon class="st0" points="57.44,76.65 62.696,76.65 54.573,55.148 61.945,42.861 56.689,42.861 47.304,58.504
			47.304,42.861 42.799,42.861 42.799,76.65 47.304,76.65 47.304,67.264 51.348,60.523"/>
		<polygon class="st0" points="82.218,57.878 76.212,57.878 76.212,51.871 71.706,51.871 71.706,57.878 65.7,57.878 65.7,62.383
			71.706,62.383 71.706,68.39 76.212,68.39 76.212,62.383 82.218,62.383"/>
		<path class="st0" d="M106.25,58.192c1.39-1.497,2.248-3.495,2.248-5.695v-1.252c0-4.623-3.761-8.384-8.384-8.384h-4.38h-2.253
			h-2.253V76.65h2.253h2.253h5.161c5.021,0,9.106-4.22,9.106-9.406v-1.461C110,62.665,108.518,59.905,106.25,58.192z
			 M100.114,47.366c2.139,0,3.879,1.74,3.879,3.879v1.252c0,2.139-1.74,3.879-3.879,3.879h-4.38v-9.01H100.114z M105.495,67.243
			c0,2.702-2.064,4.901-4.6,4.901h-5.161V60.882h4.38h0.78c2.536,0,4.6,2.199,4.6,4.901V67.243z"/>
	</g>
	<g>
		<rect x="28.532" y="42.861" class="st0" width="5.256" height="33.788"/>
		<rect x="18.771" y="42.861" class="st0" width="5.256" height="77.275"/>
		<rect x="9.01" class="st0" width="5.256" height="76.65"/>
		<rect y="42.861" class="st0" width="5.256" height="33.788"/>
	</g>
</g>
</svg>
